<svg xmlns="http://www.w3.org/2000/svg" width="18.587" height="18.587" viewBox="0 0 18.587 18.587">
  <path id="Icon_open-magnifying-glass" data-name="Icon open-magnifying-glass" d="M8.059-.022a8.059,8.059,0,0,0,0,16.118,7.965,7.965,0,0,0,3.822-.944,2.3,2.3,0,0,0,.3.3l2.3,2.3A2.349,2.349,0,1,0,17.8,14.438l-2.3-2.3a2.3,2.3,0,0,0-.368-.3,7.95,7.95,0,0,0,1.013-3.822A8.068,8.068,0,0,0,8.082-.045Zm0,2.3a5.729,5.729,0,0,1,5.756,5.756A5.774,5.774,0,0,1,12.3,12l-.069.069a2.3,2.3,0,0,0-.3.3,5.762,5.762,0,0,1-3.891,1.451,5.756,5.756,0,0,1,0-11.513Z" transform="translate(0 0.045)" fill="#fff"/>
</svg>
