<svg xmlns="http://www.w3.org/2000/svg" width="14.956" height="14.96" viewBox="0 0 14.956 14.96">
  <g id="Icon_ionic-ios-timer" data-name="Icon ionic-ios-timer" transform="translate(-3.938 -3.938)">
    <path id="Path_13" data-name="Path 13" d="M11.417,18.9A7.48,7.48,0,0,1,6.226,6.032.6.6,0,1,1,7.06,6.9a6.277,6.277,0,1,0,4.955-1.728V7.509a.6.6,0,1,1-1.2,0V4.54a.6.6,0,0,1,.6-.6,7.48,7.48,0,0,1,0,14.96Z" transform="translate(0)" fill="#00671e"/>
    <path id="Path_14" data-name="Path 14" d="M11.846,11.322,15.567,14a1.126,1.126,0,0,1-1.309,1.833A1.087,1.087,0,0,1,14,15.567l-2.674-3.721a.375.375,0,0,1,.524-.524Z" transform="translate(-3.424 -3.424)" fill="#00671e"/>
  </g>
</svg>
