<svg xmlns="http://www.w3.org/2000/svg" width="13.306" height="17.769" viewBox="0 0 13.306 17.769">
  <path id="Icon_material-directions-run" data-name="Icon material-directions-run" d="M13.1,5.526a1.653,1.653,0,1,0-1.653-1.653A1.658,1.658,0,0,0,13.1,5.526ZM10.12,17.014l.826-3.636,1.736,1.653v4.959h1.653v-6.2L12.6,12.138l.5-2.479a6.052,6.052,0,0,0,4.546,2.066V10.071a4.065,4.065,0,0,1-3.554-1.984l-.826-1.322a1.7,1.7,0,0,0-1.4-.826c-.248,0-.413.083-.661.083L6.9,7.84v3.884H8.55V8.914l1.488-.579L8.715,15.03,4.666,14.2l-.331,1.653Z" transform="translate(-4.335 -2.22)" fill="#00671e"/>
</svg>
