<svg xmlns="http://www.w3.org/2000/svg" width="18.815" height="24.125" viewBox="0 0 18.815 24.125">
  <g id="Icon_ionic-ios-document" data-name="Icon ionic-ios-document" transform="translate(-6.313 -2.938)">
    <path id="Path_8" data-name="Path 8" d="M21.653,9.415h5.033a.274.274,0,0,0,.277-.277h0a1.637,1.637,0,0,0-.592-1.267L22.15,4.354a1.777,1.777,0,0,0-1.139-.409h0a.408.408,0,0,0-.409.409v4.01A1.05,1.05,0,0,0,21.653,9.415Z" transform="translate(-2.835 -0.002)" fill="none" stroke="#00671e" stroke-width="2"/>
    <path id="Path_9" data-name="Path 9" d="M16.328,8.363V3.938H9.083a1.775,1.775,0,0,0-1.77,1.77V24.293a1.775,1.775,0,0,0,1.77,1.77H22.358a1.775,1.775,0,0,0,1.77-1.77V10.852h-5.31A2.493,2.493,0,0,1,16.328,8.363Z" fill="none" stroke="#00671e" stroke-width="2"/>
  </g>
</svg>
