<svg xmlns="http://www.w3.org/2000/svg" width="17.672" height="17.225" viewBox="0 0 17.672 17.225">
  <path id="Icon_awesome-arrow-right" data-name="Icon awesome-arrow-right" d="M7.514,3.8l.876-.876a.943.943,0,0,1,1.337,0l7.668,7.664a.943.943,0,0,1,0,1.337L9.727,19.594a.943.943,0,0,1-1.337,0l-.876-.876a.948.948,0,0,1,.016-1.353l4.753-4.528H.947A.944.944,0,0,1,0,11.891V10.629a.944.944,0,0,1,.947-.947H12.282L7.53,5.154A.941.941,0,0,1,7.514,3.8Z" transform="translate(0 -2.647)" fill="#00671e"/>
</svg>
